PathFileType	4	(X/Y/Z)	Patient4_TMGait_0pt4_01_left_30.trc.trc
DataRate	CameraRate	NumFrames	NumMarkers	Units	OrigDataRate	OrigDataStartFrame	OrigNumFrames
74.866310160428	74.866310160428	4	33	mm	74.866310160428	106	       141
Frame#	Time	Sacral			L.Shoulder			Chest			R.Shoulder			Neck			R.ASIS			L.ASIS			R.Thigh.Superior			R.Thigh.Lateral			R.Thigh.Inferior			R.Patella			L.Thigh.Superior			L.Thigh.Lateral			L.Thigh.Inferior			L.Patella			L.Shank.Superior			L.Shank.Lateral			L.Shank.Inferior			R.Shank.Superior			R.Shank.Lateral			R.Shank.Inferior			R.Heel			R.Midfoot.Superior			R.Midfoot.Lateral			R.Toe			L.Heel			L.Midfoot.Lateral			L.Midfoot.Superior			L.Toe			L.Elbow			L.Wrist			R.Elbow			R.Wrist			
		X1	Y1	Z1	X2	Y2	Z2	X3	Y3	Z3	X4	Y4	Z4	X5	Y5	Z5	X6	Y6	Z6	X7	Y7	Z7	X8	Y8	Z8	X9	Y9	Z9	X10	Y10	Z10	X11	Y11	Z11	X12	Y12	Z12	X13	Y13	Z13	X14	Y14	Z14	X15	Y15	Z15	X16	Y16	Z16	X17	Y17	Z17	X18	Y18	Z18	X19	Y19	Z19	X20	Y20	Z20	X21	Y21	Z21	X22	Y22	Z22	X23	Y23	Z23	X24	Y24	Z24	X25	Y25	Z25	X26	Y26	Z26	X27	Y27	Z27	X28	Y28	Z28	X29	Y29	Z29	X30	Y30	Z30	X31	Y31	Z31	X32	Y32	Z32	X33	Y33	Z33	

106	38.122500000000	907.530714200190	1008.249675262072	566.080253192796	1074.273635686324	1442.042516770058	382.855235169396	1189.070148052701	1371.601606396965	534.451989832278	1119.205830686125	1441.415507986635	715.480398404206	1070.829370774837	1500.058969842681	539.965633797460	1144.335362510650	943.673220523244	665.476836882203	1111.513982343897	973.203440028649	394.213997366123	1169.877907422183	738.686707814758	631.559447902771	1084.639206159493	632.932695324634	695.419339004075	1154.714180041820	577.726466910588	612.648193021043	1148.961357861798	491.861899749811	618.020665340061	1196.762298735648	790.454695685654	415.357773730502	1152.631406825744	663.098076769602	335.428981958477	1259.421534502915	604.411091250757	391.199890928903	1280.650692521651	524.669772682685	381.721678928482	1237.147130646661	450.436741346296	372.854015702904	1121.319023581597	360.266252018257	325.310914223297	1162.878928822775	233.685747260293	374.186531778246	1119.288921088964	403.466939885207	624.513304636982	1045.830503464120	301.008701878744	685.563865882229	1084.480655948812	205.806916212729	620.096325489785	947.621231833469	43.764425206039	585.893429677270	1117.619351986661	96.965239775135	626.517131929055	1029.090811548907	36.922475713186	663.389424030162	1237.589625969959	43.717482856260	657.635229821260	1016.848890552163	98.244065670747	415.472194626847	1082.641468433635	82.312809229798	330.608891689256	1176.599325851653	130.305618183207	349.023206426585	1290.038653153200	60.454291035904	311.332121179659	1006.901078582136	1095.562125394083	267.818608418001	1070.936039223994	844.305647672030	227.166232510737	1124.227230835913	1107.673558716574	864.680123560902	1300.981932312404	918.176602426472	849.805600895838	
107	38.135857142857	906.791478795705	1008.771965576628	567.668469164616	1072.807465059096	1442.332646686962	383.954587297832	1189.084426754439	1371.322719736066	534.148751065779	1121.409629991741	1441.105778436284	715.994982288061	1071.169135693000	1500.078694795884	541.010158443372	1144.071694226345	943.290010688255	664.905791122141	1109.394993023018	973.526774883415	393.940520649136	1167.435238784021	738.081439741730	630.742095120144	1081.899189860615	632.888592915475	695.578145751114	1150.724445416804	577.167927683152	612.304458158943	1144.346826704296	491.540569968687	617.899107104183	1194.277285348544	790.995970661886	415.825217489788	1151.311020756979	663.822178806980	335.169434847507	1257.074951050363	605.111154552790	392.747364487921	1279.907952148240	527.474609701317	382.818923877579	1240.320624137939	453.009173639083	373.139493458507	1131.171574137204	355.921699725199	323.887093860783	1180.367277226170	231.746316743567	372.775536566909	1114.562589469955	403.327384535805	624.510353822842	1041.009411899493	300.926579631095	685.650096385837	1079.331465218496	205.677433477179	620.065653175217	942.262136848740	43.752743000992	585.932837010628	1112.221953407635	96.911995515623	626.515448299183	1023.715939200457	36.908868065784	663.404529625051	1232.199767932264	43.664971657002	657.653398442528	1043.009747353686	87.370786215126	412.534952561008	1110.514351458757	75.261303307164	328.348612567990	1201.455451494393	128.592344915805	347.479947845272	1319.176273473543	65.345802637671	311.053014522255	1002.659805702022	1096.340765764673	269.185869887723	1064.623798852186	844.757324009939	227.402010449369	1130.307455445415	1107.897864965803	865.792834100617	1309.650834900575	921.064033471305	848.559478663419	
108	38.149214285714	906.153194979207	1009.162764170334	569.067877801178	1071.419122975826	1442.549173761988	384.867792107025	1189.063037724952	1370.985622472532	533.729207399610	1123.432985340839	1440.705052467949	716.331837483309	1071.473768018790	1500.021448539797	541.873455404273	1143.839639624551	942.905289298486	664.264680847484	1107.423370972429	973.704747265390	393.559937919637	1165.136394737046	737.467214266244	630.027895306656	1079.230410372715	632.828860985977	695.720376552964	1146.865087059081	576.611939536883	612.006549706366	1139.850186399653	491.206701319991	617.800906751992	1191.599871180616	791.069045907533	416.292277149203	1149.716787782662	664.241081785160	334.738144682584	1254.263758863898	605.291246696570	394.286591989595	1278.601220842517	529.857357237507	383.975410575463	1242.870794895961	455.403099768677	373.510384665862	1140.764522892955	351.915995215763	322.357929579495	1197.082649821719	230.563020387990	371.578584450847	1109.929150935437	403.176903901838	624.510199968546	1036.251891110948	300.850438873727	685.744239868199	1074.225143416722	205.546515602379	620.037906070998	936.904072179297	43.741968991073	585.980156131490	1106.828832498861	96.852795660728	626.508974374565	1018.342057430691	36.896515999608	663.420428045649	1226.815873981696	43.603454416633	657.670368473205	1068.439900636608	78.239801505616	409.610080225694	1137.743756332637	69.504224866472	326.414022704025	1225.515875622948	127.756281707148	346.378870229394	1347.053486006175	70.737818460022	311.900702407069	998.735063710905	1097.019642661938	270.372122116331	1058.788138713615	845.148987288595	227.564053330624	1136.116162823294	1108.004983373629	866.586782376230	1317.907441535720	923.827498276925	846.958093104833	
109	38.162571428571	905.635388269492	1009.420318510835	570.272736843407	1070.112489860649	1442.704421668140	385.577528773783	1188.992061944798	1370.619421246287	533.201528659157	1125.229624181386	1440.250201127969	716.489844566693	1071.721553385446	1499.906548325594	542.537413133331	1143.649554015211	942.531834257503	663.573394629697	1105.622886821832	973.755722371948	393.083984923816	1163.010291537779	736.848628718275	629.436179949323	1076.633656982008	632.758378037505	695.832380507963	1143.155311276836	576.061592984260	611.754636291212	1135.487396905631	490.860471964130	617.712979983710	1188.823652851259	790.755199984526	416.721996469922	1147.913427319273	664.392020170873	334.159881162632	1251.173985381196	605.058613256797	395.676875752429	1276.879054775762	531.846023451016	385.102771530641	1244.862842691163	457.602537143742	373.916332308093	1149.900395073738	348.359132666931	320.817843957481	1212.696326970279	230.121450449752	370.636039051545	1105.395620489060	403.008823377107	624.497916988824	1031.557669243331	300.789785223041	685.833858532917	1069.166697372836	205.417944725700	620.009197944238	931.544995534146	43.734022508444	586.034304103314	1101.441389445167	96.790405129517	626.497007911092	1012.967405170548	36.887402037385	663.436800935790	1221.437076908637	43.537991598282	657.687773645467	1092.534827851772	70.965986436003	406.877896368666	1163.685647365343	65.062999747349	324.926151208894	1248.264379053514	127.733083411010	345.755044594692	1373.110546440573	76.404891572155	313.808437912393	995.126087624349	1097.609667791078	271.353282447837	1053.437814393428	845.486939715633	227.636872039497	1141.624825735993	1108.016141616407	867.043655200220	1325.716862383920	926.479261533247	845.002279459297	
